<svg width="155" height="39" viewBox="0 0 155 39" fill="none" xmlns="http://www.w3.org/2000/svg">
<rect x="1" y="1" width="153" height="37" fill="#D1D1C8"/>
<path d="M27.352 12C27.384 12 27.4 12.048 27.4 12.144C27.4 12.24 27.384 12.288 27.352 12.288C26.712 12.288 26.208 12.544 25.84 13.056C25.472 13.552 25.288 14.224 25.288 15.072V27.36C25.288 27.408 25.248 27.44 25.168 27.456C25.104 27.472 25.056 27.464 25.024 27.432L13.768 14.616V23.952C13.768 24.8 13.944 25.472 14.296 25.968C14.648 26.464 15.136 26.712 15.76 26.712C15.792 26.712 15.808 26.76 15.808 26.856C15.808 26.952 15.792 27 15.76 27C15.312 27 14.968 26.992 14.728 26.976L13.432 26.952L11.944 26.976C11.672 26.992 11.28 27 10.768 27C10.72 27 10.696 26.952 10.696 26.856C10.696 26.76 10.72 26.712 10.768 26.712C11.472 26.712 12.024 26.464 12.424 25.968C12.84 25.472 13.048 24.8 13.048 23.952V13.8C12.52 13.224 12.064 12.832 11.68 12.624C11.312 12.4 10.928 12.288 10.528 12.288C10.496 12.288 10.48 12.24 10.48 12.144C10.48 12.048 10.496 12 10.528 12L11.536 12.024C11.744 12.04 12.048 12.048 12.448 12.048L14.272 12.024C14.496 12.008 14.768 12 15.088 12C15.216 12 15.312 12.032 15.376 12.096C15.44 12.16 15.552 12.296 15.712 12.504C15.984 12.872 16.176 13.12 16.288 13.248L24.592 22.824V15.072C24.592 14.208 24.416 13.528 24.064 13.032C23.712 12.536 23.224 12.288 22.6 12.288C22.568 12.288 22.552 12.24 22.552 12.144C22.552 12.048 22.568 12 22.6 12L23.632 12.024C24.144 12.056 24.576 12.072 24.928 12.072C25.248 12.072 25.696 12.056 26.272 12.024L27.352 12ZM42.4324 23.184C42.4324 23.152 42.4644 23.136 42.5284 23.136C42.5764 23.136 42.6164 23.152 42.6484 23.184C42.6964 23.2 42.7204 23.216 42.7204 23.232C42.5604 24.48 42.4804 25.616 42.4804 26.64C42.4804 26.768 42.4564 26.864 42.4084 26.928C42.3604 26.976 42.2644 27 42.1204 27H31.5124C31.4644 27 31.4404 26.952 31.4404 26.856C31.4404 26.76 31.4644 26.712 31.5124 26.712C32.0244 26.712 32.3924 26.672 32.6164 26.592C32.8564 26.512 33.0164 26.36 33.0964 26.136C33.1764 25.896 33.2164 25.536 33.2164 25.056V13.944C33.2164 13.464 33.1764 13.112 33.0964 12.888C33.0164 12.664 32.8564 12.512 32.6164 12.432C32.3764 12.336 32.0084 12.288 31.5124 12.288C31.4644 12.288 31.4404 12.24 31.4404 12.144C31.4404 12.048 31.4644 12 31.5124 12H41.6884C41.8484 12 41.9284 12.072 41.9284 12.216L41.9764 15.408C41.9764 15.44 41.9284 15.464 41.8324 15.48C41.7524 15.496 41.7044 15.48 41.6884 15.432C41.4324 14.504 41.0004 13.816 40.3924 13.368C39.7844 12.92 38.9844 12.696 37.9924 12.696H37.2724C36.7924 12.696 36.4404 12.8 36.2164 13.008C35.9924 13.216 35.8804 13.536 35.8804 13.968V18.864H37.8724C38.8004 18.864 39.5124 18.704 40.0084 18.384C40.5044 18.064 40.7524 17.616 40.7524 17.04C40.7524 16.992 40.7924 16.968 40.8724 16.968C40.9684 16.968 41.0164 16.992 41.0164 17.04L40.9924 19.2L41.0164 20.352C41.0484 20.896 41.0644 21.328 41.0644 21.648C41.0644 21.68 41.0164 21.696 40.9204 21.696C40.8244 21.696 40.7764 21.68 40.7764 21.648C40.7764 20.992 40.5204 20.48 40.0084 20.112C39.5124 19.728 38.7924 19.536 37.8484 19.536H35.8804V24.96C35.8804 25.424 35.9684 25.768 36.1444 25.992C36.3204 26.216 36.6004 26.328 36.9844 26.328H37.7764C39.0244 26.328 40.0244 26.072 40.7764 25.56C41.5284 25.048 42.0804 24.256 42.4324 23.184ZM68.6586 12C68.6906 12 68.7066 12.048 68.7066 12.144C68.7066 12.24 68.6906 12.288 68.6586 12.288C68.0666 12.288 67.5066 12.544 66.9786 13.056C66.4666 13.552 66.0426 14.24 65.7066 15.12L61.2666 26.976C61.2506 27.04 61.1626 27.072 61.0026 27.072C60.8426 27.072 60.7546 27.04 60.7386 26.976L57.6666 20.472L55.2426 26.976C55.2266 27.04 55.1386 27.072 54.9786 27.072C54.8186 27.072 54.7306 27.04 54.7146 26.976L48.5946 13.992C48.3546 13.48 48.1546 13.112 47.9946 12.888C47.8506 12.664 47.6826 12.512 47.4906 12.432C47.3146 12.336 47.0746 12.288 46.7706 12.288C46.7226 12.288 46.6986 12.24 46.6986 12.144C46.6986 12.048 46.7226 12 46.7706 12C47.0106 12 47.1786 12.008 47.2746 12.024C47.5946 12.056 48.0106 12.072 48.5226 12.072C49.5946 12.072 50.4986 12.056 51.2346 12.024C51.4426 12.008 51.6986 12 52.0026 12C52.0506 12 52.0746 12.048 52.0746 12.144C52.0746 12.24 52.0506 12.288 52.0026 12.288C51.6026 12.288 51.3146 12.328 51.1386 12.408C50.9786 12.488 50.8986 12.632 50.8986 12.84C50.8986 13.112 51.0826 13.64 51.4506 14.424L55.7706 23.592L57.2826 19.632L54.6186 13.992C54.3466 13.416 54.0906 12.992 53.8506 12.72C53.6106 12.432 53.3546 12.288 53.0826 12.288C53.0346 12.288 53.0106 12.24 53.0106 12.144C53.0106 12.048 53.0346 12 53.0826 12C53.2426 12 53.4266 12.016 53.6346 12.048C53.8586 12.064 54.1706 12.072 54.5706 12.072C55.4826 12.072 56.2426 12.056 56.8506 12.024C57.0106 12.008 57.2186 12 57.4746 12C57.5226 12 57.5466 12.048 57.5466 12.144C57.5466 12.24 57.5226 12.288 57.4746 12.288C57.2506 12.288 57.0826 12.32 56.9706 12.384C56.8746 12.432 56.8266 12.528 56.8266 12.672C56.8266 12.944 57.0426 13.528 57.4746 14.424L58.5306 16.656L59.1306 15.048C59.4826 14.136 59.6586 13.448 59.6586 12.984C59.6586 12.52 59.4586 12.288 59.0586 12.288C59.0106 12.288 58.9866 12.24 58.9866 12.144C58.9866 12.048 59.0106 12 59.0586 12C59.1866 12 59.3226 12.016 59.4666 12.048C59.6266 12.064 60.0106 12.072 60.6186 12.072C60.8906 12.072 61.2186 12.056 61.6026 12.024L62.4906 12C62.5226 12 62.5386 12.048 62.5386 12.144C62.5386 12.24 62.5226 12.288 62.4906 12.288C61.4186 12.288 60.5306 13.232 59.8266 15.12L58.9386 17.496L61.8186 23.568L64.9146 15.288C65.1066 14.776 65.2026 14.312 65.2026 13.896C65.2026 13.4 65.0746 13.008 64.8186 12.72C64.5786 12.432 64.2506 12.288 63.8346 12.288C63.7866 12.288 63.7626 12.24 63.7626 12.144C63.7626 12.048 63.7866 12 63.8346 12L64.9386 12.024C65.5146 12.056 66.0426 12.072 66.5226 12.072C66.8426 12.072 67.2106 12.056 67.6266 12.024L68.6586 12ZM75.5738 14.424C75.5738 15 75.7178 15.512 76.0058 15.96C76.3098 16.408 76.6778 16.8 77.1098 17.136C77.5418 17.472 78.1258 17.88 78.8618 18.36C79.6618 18.872 80.3018 19.32 80.7818 19.704C81.2618 20.088 81.6698 20.56 82.0058 21.12C82.3418 21.664 82.5098 22.296 82.5098 23.016C82.5098 23.848 82.2858 24.592 81.8378 25.248C81.3898 25.888 80.7658 26.392 79.9658 26.76C79.1818 27.112 78.3018 27.288 77.3258 27.288C76.6058 27.288 75.8538 27.192 75.0698 27C74.2858 26.792 73.7578 26.568 73.4858 26.328C73.4058 26.264 73.3418 26.208 73.2938 26.16C73.2618 26.096 73.2458 26 73.2458 25.872L73.1738 22.056V22.032C73.1738 21.968 73.2138 21.936 73.2938 21.936C73.3738 21.92 73.4218 21.944 73.4378 22.008C73.9178 22.984 74.3338 23.776 74.6858 24.384C75.0538 24.992 75.5098 25.528 76.0538 25.992C76.6138 26.456 77.2458 26.688 77.9498 26.688C78.5898 26.688 79.1178 26.52 79.5338 26.184C79.9498 25.832 80.1578 25.24 80.1578 24.408C80.1578 23.704 79.9978 23.088 79.6778 22.56C79.3738 22.032 78.9978 21.584 78.5498 21.216C78.1018 20.848 77.4858 20.408 76.7018 19.896C75.9338 19.4 75.3338 18.976 74.9018 18.624C74.4858 18.272 74.1258 17.848 73.8218 17.352C73.5178 16.856 73.3658 16.272 73.3658 15.6C73.3658 14.752 73.6058 14.04 74.0858 13.464C74.5818 12.872 75.2138 12.44 75.9818 12.168C76.7498 11.88 77.5578 11.736 78.4058 11.736C78.9658 11.736 79.5338 11.792 80.1098 11.904C80.6858 12 81.1498 12.12 81.5018 12.264C81.6458 12.328 81.7418 12.4 81.7898 12.48C81.8378 12.544 81.8618 12.632 81.8618 12.744V16.272C81.8618 16.32 81.8218 16.36 81.7418 16.392C81.6618 16.408 81.6138 16.392 81.5978 16.344L81.4058 15.888C81.0058 14.88 80.5338 14.024 79.9898 13.32C79.4618 12.616 78.7178 12.264 77.7578 12.264C77.1178 12.264 76.5898 12.448 76.1738 12.816C75.7738 13.184 75.5738 13.72 75.5738 14.424ZM91.7414 24.96C91.7414 25.376 91.7734 25.68 91.8374 25.872C91.9014 26.048 92.0214 26.168 92.1974 26.232C92.3894 26.296 92.6934 26.328 93.1094 26.328H93.9254C95.1734 26.328 96.2534 26 97.1654 25.344C98.0774 24.672 98.6854 23.768 98.9894 22.632C98.9894 22.6 99.0214 22.584 99.0854 22.584C99.1174 22.584 99.1494 22.6 99.1814 22.632C99.2294 22.648 99.2534 22.664 99.2534 22.68C99.1094 24.264 99.0374 25.584 99.0374 26.64C99.0374 26.768 99.0054 26.864 98.9414 26.928C98.8934 26.976 98.8054 27 98.6774 27H87.3494C87.3174 27 87.3014 26.952 87.3014 26.856C87.3014 26.76 87.3174 26.712 87.3494 26.712C87.8614 26.712 88.2294 26.672 88.4534 26.592C88.6934 26.512 88.8534 26.36 88.9334 26.136C89.0294 25.896 89.0774 25.536 89.0774 25.056V13.944C89.0774 13.464 89.0294 13.112 88.9334 12.888C88.8534 12.664 88.6934 12.512 88.4534 12.432C88.2134 12.336 87.8454 12.288 87.3494 12.288C87.3174 12.288 87.3014 12.24 87.3014 12.144C87.3014 12.048 87.3174 12 87.3494 12L88.5734 12.024C89.3094 12.056 89.9174 12.072 90.3974 12.072C90.8774 12.072 91.4854 12.056 92.2214 12.024L93.4454 12C93.4934 12 93.5174 12.048 93.5174 12.144C93.5174 12.24 93.4934 12.288 93.4454 12.288C92.9494 12.288 92.5814 12.336 92.3414 12.432C92.1014 12.512 91.9414 12.672 91.8614 12.912C91.7814 13.136 91.7414 13.488 91.7414 13.968V24.96ZM108.036 25.056C108.036 25.552 108.076 25.912 108.156 26.136C108.236 26.36 108.388 26.512 108.612 26.592C108.852 26.672 109.228 26.712 109.74 26.712C109.788 26.712 109.812 26.76 109.812 26.856C109.812 26.952 109.788 27 109.74 27C109.212 27 108.796 26.992 108.492 26.976L106.668 26.952L104.892 26.976C104.572 26.992 104.14 27 103.596 27C103.564 27 103.548 26.952 103.548 26.856C103.548 26.76 103.564 26.712 103.596 26.712C104.108 26.712 104.484 26.672 104.724 26.592C104.964 26.512 105.124 26.36 105.204 26.136C105.3 25.896 105.348 25.536 105.348 25.056V13.944C105.348 13.464 105.3 13.112 105.204 12.888C105.124 12.664 104.964 12.512 104.724 12.432C104.484 12.336 104.108 12.288 103.596 12.288C103.564 12.288 103.548 12.24 103.548 12.144C103.548 12.048 103.564 12 103.596 12L104.892 12.024C105.628 12.056 106.22 12.072 106.668 12.072C107.164 12.072 107.78 12.056 108.516 12.024L109.74 12C109.788 12 109.812 12.048 109.812 12.144C109.812 12.24 109.788 12.288 109.74 12.288C109.244 12.288 108.876 12.336 108.636 12.432C108.396 12.528 108.236 12.696 108.156 12.936C108.076 13.16 108.036 13.512 108.036 13.992V25.056ZM117.847 14.424C117.847 15 117.991 15.512 118.279 15.96C118.583 16.408 118.951 16.8 119.383 17.136C119.815 17.472 120.399 17.88 121.135 18.36C121.935 18.872 122.575 19.32 123.055 19.704C123.535 20.088 123.943 20.56 124.279 21.12C124.615 21.664 124.783 22.296 124.783 23.016C124.783 23.848 124.559 24.592 124.111 25.248C123.663 25.888 123.039 26.392 122.239 26.76C121.455 27.112 120.575 27.288 119.599 27.288C118.879 27.288 118.127 27.192 117.343 27C116.559 26.792 116.031 26.568 115.759 26.328C115.679 26.264 115.615 26.208 115.567 26.16C115.535 26.096 115.519 26 115.519 25.872L115.447 22.056V22.032C115.447 21.968 115.487 21.936 115.567 21.936C115.647 21.92 115.695 21.944 115.711 22.008C116.191 22.984 116.607 23.776 116.959 24.384C117.327 24.992 117.783 25.528 118.327 25.992C118.887 26.456 119.519 26.688 120.223 26.688C120.863 26.688 121.391 26.52 121.807 26.184C122.223 25.832 122.431 25.24 122.431 24.408C122.431 23.704 122.271 23.088 121.951 22.56C121.647 22.032 121.271 21.584 120.823 21.216C120.375 20.848 119.759 20.408 118.975 19.896C118.207 19.4 117.607 18.976 117.175 18.624C116.759 18.272 116.399 17.848 116.095 17.352C115.791 16.856 115.639 16.272 115.639 15.6C115.639 14.752 115.879 14.04 116.359 13.464C116.855 12.872 117.487 12.44 118.255 12.168C119.023 11.88 119.831 11.736 120.679 11.736C121.239 11.736 121.807 11.792 122.383 11.904C122.959 12 123.423 12.12 123.775 12.264C123.919 12.328 124.015 12.4 124.063 12.48C124.111 12.544 124.135 12.632 124.135 12.744V16.272C124.135 16.32 124.095 16.36 124.015 16.392C123.935 16.408 123.887 16.392 123.871 16.344L123.679 15.888C123.279 14.88 122.807 14.024 122.263 13.32C121.735 12.616 120.991 12.264 120.031 12.264C119.391 12.264 118.863 12.448 118.447 12.816C118.047 13.184 117.847 13.72 117.847 14.424ZM134.23 12.552C132.326 12.552 130.958 13.792 130.126 16.272C130.11 16.32 130.062 16.344 129.982 16.344C129.902 16.328 129.862 16.296 129.862 16.248C129.926 15.608 129.998 14.784 130.078 13.776C130.158 12.752 130.198 11.984 130.198 11.472C130.198 11.392 130.238 11.352 130.318 11.352C130.414 11.352 130.462 11.392 130.462 11.472C130.462 11.824 130.918 12 131.83 12C133.206 12.048 134.814 12.072 136.654 12.072C137.598 12.072 138.598 12.056 139.654 12.024L141.286 12C141.894 12 142.334 11.96 142.606 11.88C142.894 11.8 143.078 11.64 143.158 11.4C143.174 11.336 143.222 11.304 143.302 11.304C143.398 11.304 143.446 11.336 143.446 11.4C143.398 11.88 143.342 12.648 143.278 13.704C143.23 14.76 143.206 15.608 143.206 16.248C143.206 16.296 143.166 16.32 143.086 16.32C143.006 16.32 142.958 16.296 142.942 16.248C142.702 15.016 142.254 14.096 141.598 13.488C140.942 12.864 140.134 12.552 139.174 12.552C138.71 12.552 138.398 12.656 138.238 12.864C138.094 13.056 138.022 13.432 138.022 13.992V25.056C138.022 25.552 138.07 25.912 138.166 26.136C138.262 26.36 138.446 26.512 138.718 26.592C138.99 26.672 139.422 26.712 140.014 26.712C140.062 26.712 140.086 26.76 140.086 26.856C140.086 26.952 140.062 27 140.014 27C139.438 27 138.982 26.992 138.646 26.976L136.654 26.952L134.71 26.976C134.374 26.992 133.91 27 133.318 27C133.27 27 133.246 26.952 133.246 26.856C133.246 26.76 133.27 26.712 133.318 26.712C133.894 26.712 134.318 26.672 134.59 26.592C134.878 26.512 135.07 26.36 135.166 26.136C135.278 25.896 135.334 25.536 135.334 25.056V13.944C135.334 13.4 135.262 13.032 135.118 12.84C134.974 12.648 134.678 12.552 134.23 12.552Z" fill="#191919"/>
<rect x="1" y="1" width="153" height="37" stroke="#191919" stroke-width="2"/>
</svg>
